<?xml version="1.0" encoding="UTF-8"?>
<svg xmlns="http://www.w3.org/2000/svg" id="Capa_1" data-name="Capa 1" viewBox="0 0 340 84">
  <defs>
    <style>.cls-1{fill:#fff;}</style>
  </defs>
  <path class="cls-1" d="M131.7,28.14,117.36,13V16.6h-35C72.24,16.6,64,24.26,64,33.69v6h53.37v3.62ZM63.83,42.7,49.5,57.86,63.83,73V69.38h35c10.17,0,18.41-7.63,18.41-17.08v-6H63.83Z"></path>
  <path class="cls-1" d="M239,26.61l-4.51-10h-13V41.2h9.76l.06-11.82,4.07,11.82h7L246.36,29l0,12.18h9.77V16.58h-13ZM172.47,41.2h9.28V16.58h-9.28Zm98.86-8.93L274,24.92l2.7,7.35Zm10.25-15.69h-15L257.89,41.2h10.18l1.5-4.08h8.94L280,41.2h10.24Zm-122.76,9a9.84,9.84,0,0,1-3.28-1.48,2.5,2.5,0,0,1-.6-1.84,1.75,1.75,0,0,1,.54-1.4,2.43,2.43,0,0,1,1.61-.46,2.2,2.2,0,0,1,1.39.34c.29.24.42.78.42,1.63v1.81h10.75v-1a6.33,6.33,0,0,0-1-4.11c-.68-.79-2.09-1.46-4.21-2a32.91,32.91,0,0,0-7.72-.78,29.46,29.46,0,0,0-7.06.73,9.27,9.27,0,0,0-4.23,2,5.46,5.46,0,0,0-1.3,4,5.25,5.25,0,0,0,.91,3.18,6.58,6.58,0,0,0,2.33,1.95,57.83,57.83,0,0,0,5.73,2.22,36.77,36.77,0,0,1,5.41,2.18c.71.44,1.06,1.38,1.06,2.82A1.83,1.83,0,0,1,159,36.9a2.58,2.58,0,0,1-1.74.5A2.49,2.49,0,0,1,155.6,37a2.39,2.39,0,0,1-.46-1.77v-3H144.4v1.59a7.46,7.46,0,0,0,1,4.22c.68,1,2.12,1.8,4.32,2.43a28.78,28.78,0,0,0,8,1,30,30,0,0,0,7.44-.83,9,9,0,0,0,4.32-2.06,5.42,5.42,0,0,0,1.12-3.79q0-3.56-2-5.16t-9.76-4.07m42.87,1.06-4.51-10h-13V41.2H194l0-11.82,4.08,11.82h7L209,29l.05,12.18h9.76V16.58h-13Z"></path>
  <path class="cls-1" d="M150.15,69.16a6.22,6.22,0,0,1-2,.36,3.43,3.43,0,0,1-2.46-.84,3.14,3.14,0,0,1-.88-2.32,3.2,3.2,0,0,1,3.5-3.27,4.15,4.15,0,0,1,1.67.3l-.25.93a3.35,3.35,0,0,0-1.43-.27A2.1,2.1,0,0,0,146,66.3a2.08,2.08,0,0,0,2.18,2.28,2.12,2.12,0,0,0,.87-.13V66.88h-1.11V66h2.22Z"></path>
  <path class="cls-1" d="M156.67,63.24a11.33,11.33,0,0,1,1.73-.13,2.87,2.87,0,0,1,1.94.51,1.57,1.57,0,0,1,.54,1.26,1.67,1.67,0,0,1-1.13,1.57v0a1.63,1.63,0,0,1,.87,1.22,13,13,0,0,0,.5,1.75h-1.19a9.72,9.72,0,0,1-.42-1.48c-.18-.83-.47-1.09-1.13-1.11h-.58v2.59h-1.13ZM157.8,66h.69c.77,0,1.26-.41,1.26-1s-.49-1-1.24-1a3.18,3.18,0,0,0-.71.06Z"></path>
  <path class="cls-1" d="M168.42,63.16v3.67c0,1.23.51,1.8,1.29,1.8s1.32-.57,1.32-1.8V63.16h1.15v3.59c0,1.94-1,2.8-2.51,2.8s-2.4-.81-2.4-2.79v-3.6Z"></path>
  <path class="cls-1" d="M178.84,63.24a10.42,10.42,0,0,1,1.75-.13,2.83,2.83,0,0,1,1.86.52,1.77,1.77,0,0,1,.61,1.39,1.87,1.87,0,0,1-.54,1.42,2.75,2.75,0,0,1-2,.68,3.06,3.06,0,0,1-.56,0v2.37h-1.13ZM180,66.17a2.18,2.18,0,0,0,.56,0c.86,0,1.39-.42,1.39-1.16S181.43,64,180.64,64a3.09,3.09,0,0,0-.67.06Z"></path>
  <path class="cls-1" d="M195,66.24c0,2.11-1.28,3.31-3,3.31a2.9,2.9,0,0,1-2.89-3.2,3,3,0,0,1,3-3.29A2.91,2.91,0,0,1,195,66.24Zm-4.7.09c0,1.28.64,2.3,1.75,2.3s1.73-1,1.73-2.34S193.17,64,192,64,190.28,65,190.28,66.33Z"></path>
  <path class="cls-1" d="M212.09,66.66h-2.37v1.85h2.65v.94h-3.8V63.16h3.66v.94h-2.51v1.63h2.37Z"></path>
  <path class="cls-1" d="M224,66.88c0-.81-.09-1.79-.08-2.64h0c-.2.77-.46,1.62-.74,2.41l-.92,2.73h-.88l-.84-2.69c-.25-.81-.47-1.66-.64-2.45h0c0,.82-.06,1.82-.11,2.68l-.14,2.53h-1.07l.42-6.29h1.51l.82,2.53c.22.74.42,1.48.58,2.18h0c.17-.68.38-1.45.62-2.19l.87-2.52h1.49l.37,6.29h-1.12Z"></path>
  <path class="cls-1" d="M231.77,63.24a10.42,10.42,0,0,1,1.75-.13,2.83,2.83,0,0,1,1.86.52A1.77,1.77,0,0,1,236,65a1.87,1.87,0,0,1-.55,1.42,2.74,2.74,0,0,1-2,.68,2.92,2.92,0,0,1-.56,0v2.37h-1.14Zm1.14,2.93a2.14,2.14,0,0,0,.56,0c.85,0,1.38-.42,1.38-1.16S234.36,64,233.57,64a2.91,2.91,0,0,0-.66.06Z"></path>
  <path class="cls-1" d="M242.32,63.24a11.58,11.58,0,0,1,1.74-.13,2.87,2.87,0,0,1,1.94.51,1.57,1.57,0,0,1,.54,1.26,1.67,1.67,0,0,1-1.13,1.57v0a1.63,1.63,0,0,1,.87,1.22,13,13,0,0,0,.5,1.75h-1.19a9.72,9.72,0,0,1-.42-1.48c-.18-.83-.47-1.09-1.13-1.11h-.58v2.59h-1.14ZM243.46,66h.68c.78,0,1.27-.41,1.27-1s-.49-1-1.24-1a3.18,3.18,0,0,0-.71.06Z"></path>
  <path class="cls-1" d="M256.5,66.66h-2.38v1.85h2.66v.94H253V63.16h3.66v.94h-2.52v1.63h2.38Z"></path>
  <path class="cls-1" d="M263.1,68.2a3.21,3.21,0,0,0,1.52.4c.73,0,1.15-.34,1.15-.86s-.32-.75-1.13-1c-1-.38-1.69-.93-1.69-1.83s.85-1.81,2.22-1.81a3.45,3.45,0,0,1,1.51.31l-.28.93a2.65,2.65,0,0,0-1.25-.3c-.73,0-1,.39-1,.75s.37.71,1.21,1c1.09.41,1.62,1,1.62,1.87s-.76,1.88-2.39,1.88a3.71,3.71,0,0,1-1.7-.39Z"></path>
  <path class="cls-1" d="M274.57,67.67,274,69.45h-1.19l2-6.29h1.46l2.05,6.29h-1.23l-.57-1.78Zm1.8-.87-.49-1.55c-.13-.38-.23-.81-.32-1.18h0c-.09.37-.19.81-.3,1.18l-.49,1.55Z"></path>
  <path class="cls-1" d="M284.56,68.2a3.21,3.21,0,0,0,1.52.4c.74,0,1.15-.34,1.15-.86s-.32-.75-1.12-1c-1-.38-1.7-.93-1.7-1.83s.86-1.81,2.22-1.81a3.45,3.45,0,0,1,1.51.31l-.28.93a2.65,2.65,0,0,0-1.25-.3c-.73,0-1.05.39-1.05.75s.37.71,1.21,1c1.09.41,1.62,1,1.62,1.87s-.76,1.88-2.39,1.88a3.71,3.71,0,0,1-1.7-.39Z"></path>
  <rect class="cls-1" x="146.94" y="52.03" width="143.56" height="0.82"></rect>
</svg>
